<?xml version="1.0" encoding="UTF-8"?>
<svg id="data-life-cycle-index" xmlns="http://www.w3.org/2000/svg" version="1.1" xmlns:xlink="http://www.w3.org/1999/xlink" viewBox="0 0 250.9 288" height="40%">
  <defs>
    <style>
      .cls-1 {
        fill: #fac54b;
      }

      .cls-1, .cls-2, .cls-3, .cls-4, .cls-5, .cls-6, .cls-7, .cls-8, .cls-9 {
        stroke-width: 0px;
      }

      .cls-2 {
        fill: #9e51ad;
      }

      .cls-10 {
        clip-path: url(#clippath-2);
      }

      .cls-11, .cls-12 {
        isolation: isolate;
      }

      .cls-12 {
        font-family: ArialMT, Arial;
        font-size: 10px;
      }

      .cls-12, .cls-6 {
        fill: #fff;
      }

      .cls-3 {
        fill: none;
      }

      .cls-13 {
        clip-path: url(#clippath-1);
      }

      .cls-14 {
        clip-path: url(#clippath);
      }

      .cls-4 {
        fill: #fa484b;
      }

      .cls-5 {
        fill: #f67028;
      }

      .cls-7 {
        fill: #4176a5;
      }

      .cls-8 {
        fill: #32b890;
      }

      .cls-9 {
        fill: #8aba56;
      }
      .cls-7:hover,.cls-2:hover,.cls-8:hover,.cls-9:hover,.cls-5:hover,.cls-4:hover,.cls-1:hover {fill:#73757d;cursor: pointer;transition: fill 0.3s;}
      .cls-7,.cls-2,.cls-8,.cls-9,.cls-5,.cls-4,.cls-1 {transition: fill 0.3s;}
      .cls-6 {fill:#FFFFFF; pointer-events: none;}
      text {pointer-events : none;}
    </style>
    <symbol id="Badge_3_-_Green" data-name="Badge 3 - Green" viewBox="0 0 8.8 6.1">
      <g>
        <path class="cls-6" d="M4.4,0C4.3,0,4.1.1,4,.3c0,0-.3.3-.5.3h-1c-.1,0,0,0,0,0,0,0,0,0-.2.3,0,.2,0,.4-.2.5-.1,0-.4,0-.6,0s-.5,0-.5,0c0,0,0,.2.1.3,0,.2.2.3.1.5,0,0-.2.2-.4.4-.1,0-.3.2-.3.2,0,0,.2.2.3.3.2,0,.4.2.4.4s0,.3-.1.5c0,.1-.1.3-.1.3,0,0,.3.1.5.1s.5,0,.6.1c.2.1.2.3.2.5s0,.3.2.3h1.1c.2,0,.3.2.5.3.2.1.3.3.4.3s.3,0,.4-.3c0-.1.3-.3.5-.3h1.1s0,0,.2-.3c0-.2,0-.4.2-.5,0,0,.4-.1.6-.1s.5,0,.5-.1c0,0,0-.2,0-.3,0-.2-.2-.3,0-.5,0,0,.2-.2.4-.4.1,0,.3-.2.3-.3s-.2-.2-.3-.2c-.2,0-.4-.2-.4-.4s0-.3,0-.5c0,0,0-.3,0-.3,0,0-.3,0-.5,0s-.5,0-.6,0c-.2,0-.2-.3-.2-.5s0-.3-.2-.3h-1.1c-.2,0-.3-.2-.5-.3C4.6.2,4.5,0,4.4,0Z"/>
        <path class="cls-6" d="M4.4,5.6c0,0,.2-.1.4-.2.2,0,.3-.3.5-.3h1.1v-.2c0-.2,0-.4.3-.5.2-.1.4-.1.7-.2h.4v-.2c0-.2-.2-.4,0-.6,0-.2.3-.3.5-.4,0,0,.2,0,.2,0h-.2c-.2-.2-.4-.3-.5-.5,0-.2,0-.4,0-.6v-.2h-.4c-.3,0-.5,0-.7-.2-.2,0-.2-.4-.3-.5v-.2h-1.1c-.2,0-.4-.2-.5-.3,0,0-.3-.2-.4-.2s-.2,0-.4.2c-.2,0-.3.3-.5.3h-1.1c-.1,0,0,0,0,0v.2c0,.2,0,.4-.3.5-.2,0-.4,0-.7.2h-.4v.2c0,.2.2.4.1.6,0,.2-.3.3-.5.4,0,0-.2,0-.2,0h.2c.2.2.4.3.5.5,0,.2,0,.4-.1.6v.2h.4c.3,0,.5,0,.7.2.2.1.2.4.3.5v.2h1c.2,0,0,0,0,0,.2,0,.4.2.5.3,0,0,.3.2.4.2M4.4,5.8c-.4,0-.6-.5-1-.5h0c-.3,0-.7.2-1,.2s0,0-.2,0c-.3,0-.2-.6-.4-.8-.2-.2-1,0-1.2-.3-.2-.2.3-.6.2-.8,0-.2-.8-.4-.8-.7s.7-.4.8-.7c0-.2-.4-.6-.2-.8.2-.2.9,0,1.2-.3.2-.2.1-.7.4-.8h.2c.3,0,.7.2,1,.2h0c.3,0,.6-.5,1-.5s.6.5,1,.5h0c.3,0,.7-.2,1-.2s0,0,.2,0c.3,0,.2.6.4.8s1,0,1.2.3c.2.2-.3.6-.2.8,0,.2.8.4.8.7s-.7.4-.8.7c0,.2.4.6.2.8-.2.2-.9.1-1.2.3-.2.2,0,.7-.4.8h-.2c-.3,0-.7-.2-1-.2s0,0,0,0c-.3,0-.6.5-1,.5h0Z"/>
      </g>
    </symbol>
    <symbol id="Lock" viewBox="0 0 20.9 25.8">
      <path class="cls-6" d="M20.2,12.9h-2.1v-5.7h0c0-4-3.4-7.2-7.6-7.2S3,3.2,2.9,7.2h0v5.7H.8c-.5,0-.8.4-.8.8v11.3c0,.4.4.8.8.8h19.3c.5,0,.8-.4.8-.8v-11.3c0-.4-.4-.8-.8-.8,0,0,.1,0,.1,0ZM5.9,7.2h0c0-2.4,2.1-4.4,4.6-4.4s4.6,2,4.6,4.4h0v5.7H5.9v-5.7ZM12.1,21.4h-3.2l1-2.8c-.6-.2-1.1-.8-1.1-1.5s.8-1.6,1.7-1.6,1.7.7,1.7,1.6-.5,1.3-1.1,1.5c0,0,1,2.8,1,2.8Z"/>
    </symbol>
    <symbol id="Search" viewBox="0 0 63.2 61.3">
      <g>
        <path class="cls-6" d="M.5,54c-.7-.8-.7-2.1.1-2.8l16.9-15.4c.8-.7,2.1-.7,2.8,0l6,6.7c.7.8.7,2.1-.1,2.8l-16.9,15.5c-.8.7-2.1.7-2.8,0,0-.1-6-6.8-6-6.8Z"/>
        <path class="cls-6" d="M41.1,0C43.5,0,45.9.4,48.3,1.2c11.6,4,17.7,16.6,13.7,28.2-3.2,9.2-11.7,14.9-20.9,14.9s-4.8-.4-7.2-1.2c-11.6-4-17.7-16.6-13.7-28.2C23.3,5.7,31.9,0,41.1,0M41.1,6c-6.9,0-13,4.4-15.2,10.9-1.4,4.1-1.1,8.5.7,12.3,1.9,3.9,5.2,6.8,9.2,8.2,1.7.6,3.5.9,5.3.9,6.9,0,13-4.4,15.2-10.9,1.4-4.1,1.1-8.5-.7-12.3-1.9-3.9-5.2-6.8-9.2-8.2h0c-1.7-.6-3.5-.9-5.3-.9h0Z"/>
      </g>
    </symbol>
    <clipPath id="clippath">
      <rect class="cls-3" x="208.7" y="104.1" width="25.3" height="24.5"/>
    </clipPath>
    <clipPath id="clippath-1">
      <rect class="cls-3" x="208.6" y="104.1" width="25.3" height="24.5"/>
    </clipPath>
    <clipPath id="clippath-2">
      <rect class="cls-3" x="113.1" y="223.8" width="9.6" height="6.9"/>
    </clipPath>
  </defs>
  <g id="link-to-reusing2">
    <g id="ReusePath2">
      <path class="cls-4" d="M63.9,70.6l14.9,33.1c10.7-12.4,26.2-20.5,43.6-21.3l16.7-32.3-16.2-31.6c-37.6.8-71.2,18.1-93.7,45l34.7,7.1h0Z"/>
    </g>
  </g>
  <g id="link-to-sharing2">
    <g id="SharePath2">
      <path class="cls-2" d="M28.9,145.5l35.1,9c-.7-3.7-1.1-7.5-1.1-11.4,0-13.4,4.3-25.9,11.6-36l-14.8-33.1-34.8-7C8.7,88.1-.9,114.5-.9,143.2s.9,17,2.5,25.1l27.3-22.8Z"/>
      <path class="cls-6" d="M99,35.8c.7,0,1.5,0,2.2.3,1,.4,1.7,1.3,2,2.3.2.6,0,1.4,0,2-.4,1.1-1.3,2-2.4,2.4h-1.3c-.6,0-1.1-.2-1.6-.5-1.1.6-2.2,1.2-3.3,1.8-.2,0-.3.2-.5.3-.8.4-1.5.9-2.3,1.3,0,.4.2.8.2,1.2s0,.8-.2,1.1c.8.4,1.5.9,2.3,1.3.2,0,.3.2.5.3,1,.6,2,1.1,3,1.7.5-.4,1.1-.7,1.8-.7s1.6,0,2.3.5c1,.6,1.7,1.7,1.7,2.8s0,1.4-.4,1.9c-.3.6-.8,1.1-1.4,1.4-.3.2-.7.3-1,.4-.6,0-1.3,0-1.9-.2-.5-.2-.9-.4-1.3-.8-.6-.5-1-1.3-1.1-2.1,0-.6,0-1.2.2-1.8-.7-.4-1.4-.8-2.2-1.2-.4-.2-.7-.4-1-.5-.8-.5-1.7-.9-2.5-1.4-.5.4-1.1.7-1.7.8-.8.2-1.7,0-2.5-.4-.6-.4-1.1-.9-1.4-1.5-.4-.7-.5-1.5-.3-2.3,0-.6.4-1.1.7-1.6.4-.5,1-.9,1.7-1.2.6-.2,1.3-.3,2,0,.6,0,1.1.4,1.5.8,1.1-.6,2.2-1.2,3.3-1.8,0,0,.3,0,.4-.2.7-.4,1.4-.8,2.2-1.2-.7-1.3-.4-3.1.7-4.1.4-.6,1-.9,1.7-1.1h0Z"/>
    </g>
  </g>
  <g id="link-to-preserving2">
    <g id="PreservePath2">
      <path class="cls-7" d="M67.6,220.2l29-21.8c-14.7-7.8-25.8-21.4-30.4-37.8l-35.2-9.1-27.2,22.8c8.8,35.5,32.8,65.1,64.7,81.4l-.9-35.5h0Z"/>
      <path class="cls-6" d="M33.9,91c1.8,0,3.6,0,5.3.4,1,.2,2.1.5,3.1.9.6.3,1.2.6,1.7,1,.3.3.5.6.6,1,0,.4,0,.7-.3,1-.3.4-.8.8-1.3,1-.8.4-1.7.7-2.5.9-1.4.4-2.9.5-4.4.6-2.3,0-4.7,0-7-.5-1-.2-1.9-.5-2.8-.9-.6-.3-1.1-.6-1.5-1.1-.2-.3-.4-.7-.4-1s.3-.8.6-1.1c.7-.6,1.5-.9,2.4-1.2,1.2-.4,2.5-.6,3.8-.8.9,0,1.8,0,2.7-.2Z"/>
      <path class="cls-6" d="M24.4,97.9c1.2.8,2.6,1.2,4,1.5,2.1.5,4.3.6,6.4.6s2,0,3.1-.2c2-.2,4-.6,5.8-1.4.4-.2.7-.3,1-.6v4.2c0,.3,0,.7-.3.9-.3.4-.7.7-1.2.9-.3.2-.5.3-.8.4-1.6.6-3.3.9-4.9,1.1-1.9.2-3.8.2-5.7,0-1.3,0-2.5-.3-3.7-.7-1-.3-2-.6-2.8-1.3-.3-.3-.7-.6-.8-1v-4.4h0Z"/>
      <path class="cls-6" d="M24.4,105.6c.5.3,1,.5,1.6.8,1.9.7,3.9,1.1,5.9,1.2h5.6c1.9-.2,3.9-.5,5.7-1.2.5-.2,1.1-.5,1.6-.8v4.7c0,.4-.4.6-.7.9-.7.6-1.6.9-2.4,1.2-.6.2-1.3.4-1.9.5-1.1.2-2.2.3-3.3.4h-2.7c-1.8,0-3.6-.3-5.4-.7-1-.3-2.1-.7-3-1.4-.3-.2-.5-.5-.7-.8v-4.8s-.3,0-.3,0Z"/>
      <path class="cls-6" d="M113.7,226.5c1.6,0,3.2,0,4.7.3.9.2,1.9.4,2.7.7.5.2,1.1.5,1.5.8.3.2.4.5.5.8,0,.3,0,.5-.3.8s-.7.6-1.2.8c-.7.3-1.5.5-2.2.7-1.2.3-2.6.4-3.9.5-2,0-4.2,0-6.2-.4-.9-.2-1.7-.4-2.5-.7-.5-.2-1-.5-1.3-.9-.2-.2-.4-.5-.4-.8s.3-.6.5-.9c.6-.5,1.3-.7,2.1-.9,1.1-.3,2.2-.5,3.4-.6.8,0,1.6,0,2.4-.2h.2Z"/>
    </g>
  </g>
  <a href="processing-use-sensitive-data.qmd">
  <g id="link-to-analysing2">
    <g id="AnalysePath2">
      <path class="cls-8" d="M149,236.8l1-36.2c-7.5,3.3-15.8,5.1-24.5,5.1s-16.6-1.7-24-4.9l-29.1,21.8.9,35.5c15.9,7.3,33.6,11.4,52.2,11.4s36-4,51.7-11.1l-28.2-21.6h0Z"/>
      <path class="cls-6" d="M50.9,166.6h4.3c.5,0,.8.4.8.8v21.5c0,.2,0,.5-.2.7s-.4.3-.6.3h-4.1c-.3,0-.5-.1-.7-.3,0-.2-.2-.4-.2-.6v-21.5c0-.5.2-.9.7-.9Z"/>
      <path class="cls-6" d="M42.2,173.1h4.1c.2,0,.4,0,.5.1.3.1.5.3.5.6v15.3c0,.5-.4.9-.8.9h-3.9c-.2,0-.4,0-.6-.1-.3-.1-.5-.4-.5-.8v-15.1c0-.5.3-.8.7-.9Z"/>
      <path class="cls-6" d="M33.9,179.3h4.3c.4,0,.8.4.8.8v8.8c0,.3,0,.6-.4.8-.2.1-.4.2-.5.2h-3.7c-.3,0-.6,0-.8-.1-.3-.1-.4-.5-.4-.8v-9.1c0-.3.2-.6.6-.6h.1Z"/>
    </g>
  </g>
  </a>
  <g id="link-to-planning2">
    <g id="PlanPath2">
      <path class="cls-5" d="M144.4,50.1l-16.6,32.3c17.5.7,33.2,8.6,44,20.9l35.7-7,14.6-32.4c-22.5-27.1-56.1-44.6-93.9-45.4l16.2,31.6h0Z"/>
      <path class="cls-6" d="M166.7,42.6c.3-.4.8-.6,1.4-.6h14.1c.5,0,1,.2,1.4.6.3.3.4.7.4,1.2v3c-.3.3-.5.5-.8.8-2.6,2.6-5.3,5.3-7.9,7.9-.1,0-.3.3-.3.5-.4,1.6-.8,3.1-1.2,4.7,0,.2-.1.4,0,.5.1.2.4.3.7.3,1.6-.4,3.2-.8,4.7-1.3.2,0,.3,0,.4-.3l4.5-4.5v7.6c0,.4-.1.8-.3,1.1-.3.4-.9.7-1.4.7h-14.1c-.3,0-.7,0-1-.2s-.6-.4-.7-.8c-.1-.3-.2-.6-.2-.9v-19.2c0-.4,0-.8.3-1.1h0Z"/>
      <path class="cls-6" d="M185.5,46.9c.5-.3,1.2-.4,1.7,0,.3.2.6.4.8.7.5.6.6,1.5.1,2.1-.1.2-.3.4-.5.5-.9-.9-1.8-1.8-2.7-2.7.2-.2.4-.4.6-.5h0Z"/>
      <path class="cls-6" d="M176.3,56c2.6-2.6,5.2-5.2,7.8-7.8.9.9,1.8,1.8,2.7,2.7-2.6,2.6-5.2,5.2-7.8,7.8-.9-.9-1.8-1.8-2.7-2.7Z"/>
      <path class="cls-6" d="M175.8,57.1h.1c.7.8,1.3,1.4,2,2.1-1,.3-1.9.5-2.9.8.3-.9.6-1.9.8-2.9h0Z"/>
    </g>
  </g>
  <g id="link-to-collecting2">
    <g id="CollectPath2">
      <path class="cls-1" d="M213.9,178.3l34.4-8.7c1.7-8.3,2.6-16.8,2.6-25.6,0-28.5-9.5-54.7-25.4-75.8l-14.7,32.3-35.6,7c7.5,10.2,11.9,22.8,11.9,36.4s-.3,7.3-1,10.8l27.8,23.6h0Z"/>
      <g class="cls-14">
        <g class="cls-13">
          <use width="63.2" height="61.3" transform="translate(208.5 104.1) scale(.4)" xlink:href="#Search"/>
        </g>
      </g>
    </g>
  </g>
  <g id="link-to-processing2">
    <g id="ProcessPath2">
      <path class="cls-9" d="M211.7,183.5l-27.7-23.4c-4.4,16.4-15.5,30.1-30.1,38.1l-1.1,36.3,28.3,21.5c31.9-16.2,56-45.6,65-81.1l-34.4,8.6h0Z"/>
      <path class="cls-6" d="M179.7,190.9h21.4c.3,0,.6,0,.8.1.5.2.7.7.7,1.2v12.8c0,.4-.1.7-.3,1-.3.3-.7.5-1.1.5h-21.2c-.4,0-.9-.2-1.1-.6-.2-.3-.3-.6-.3-.9v-12.8c0-.4.1-.8.4-1,.2-.1.4-.2.7-.3h0ZM184.6,196.7c-.3,0-.7.2-1,.4-.2.1-.3.4-.4.6-.4.6-.4,1.4,0,2.1.4.6,1,.9,1.6,1,.5,0,1-.1,1.4-.4.1-.1.2-.1.3-.3.3-.5.5-1.1.4-1.6-.1-.6-.5-1.2-1.1-1.5-.3-.3-.7-.3-1.2-.3ZM195.7,196.7c-.4.1-.9.2-1.2.5-.3.4-.5.8-.5,1.3-.1,1,.7,2,1.6,2.1.6.1,1.2-.1,1.7-.4.2-.1.3-.3.4-.4.3-.5.4-1.1.2-1.6-.1-.4-.3-.7-.6-1-.5-.4-1.1-.6-1.6-.5h0ZM190.1,196.7c-.3,0-.5.1-.8.3-.2.1-.4.2-.5.4-.4.6-.5,1.3-.3,1.9.2.6.6,1,1.2,1.3.6.3,1.3.1,1.9-.2.1-.1.3-.1.4-.3.3-.4.5-.9.4-1.5,0-.7-.5-1.5-1.2-1.8h-1.1,0Z"/>
      <path class="cls-6" d="M184.6,197.8c.3-.1.6,0,.9.1.2.1.3.3.3.5.1.3,0,.7-.3,1s-1.3.2-1.5-.4c0-.4.2-1,.6-1.2h0Z"/>
      <path class="cls-6" d="M190.2,197.8c.4-.2.9.1,1.1.5.1.3.1.6,0,.9-.2.3-.5.4-.8.4s-.5-.2-.6-.4c-.2-.3-.3-.7-.1-1,0-.2.2-.3.4-.4h0Z"/>
      <path class="cls-6" d="M195.6,197.8c.3-.1.7,0,1,.2.2.2.3.5.3.7,0,.4-.4.8-.8.9-.3,0-.6-.1-.8-.3s-.3-.5-.2-.8c0-.3.2-.6.5-.7h0Z"/>
      <path class="cls-6" d="M187.1,207.7h6.6c.2,0,.5.1.5.4.3.9.6,1.9.9,2.8.1.2.1.4.3.6.1.1.3.1.4.1h2.1c.2,0,.4,0,.5.2.3.3.1.7-.2.8h-15.4c-.3,0-.6-.3-.5-.6,0-.3.3-.5.6-.5h2.2c.3,0,.5-.2.6-.4.3-.9.6-1.9.9-2.8.1-.2.1-.3.2-.5,0-.1.2-.1.3-.1h0Z"/>
    </g>
  </g>
  <g class="cls-11">
    <g class="cls-11">
      <text class="cls-12" transform="translate(16.4 128.6)"><tspan x="0" y="0">Archive</tspan></text>
    </g>
  </g>
  <g class="cls-11">
    <g class="cls-11">
      <text class="cls-12" transform="translate(80.9 70.5)"><tspan x="0" y="0">Share</tspan></text>
    </g>
  </g>
  <g class="cls-11">
    <g class="cls-11">
      <text class="cls-12" transform="translate(25.6 203.6)"><tspan x="0" y="0">Analyse &amp;</tspan></text>
    </g>
    <g class="cls-11">
      <text class="cls-12" transform="translate(25.6 215.6)"><tspan x="0" y="0">visualise</tspan></text>
    </g>
  </g>
  <g class="cls-11">
    <g class="cls-11">
      <text class="cls-12" transform="translate(99.5 248.6)"><tspan x="0" y="0">Protect &amp;</tspan></text>
    </g>
    <g class="cls-11">
      <text class="cls-12" transform="translate(99.5 260.6)"><tspan x="0" y="0">secure</tspan></text>
    </g>
  </g>
  <g class="cls-11">
    <g class="cls-11">
      <text class="cls-12" transform="translate(166.4 225.9)"><tspan x="0" y="0">Store &amp;</tspan></text>
    </g>
    <g class="cls-11">
      <text class="cls-12" transform="translate(166.4 237.9)"><tspan x="0" y="0">organise</tspan></text>
    </g>
  </g>
  <g class="cls-11">
    <g class="cls-11">
      <text class="cls-12" transform="translate(162.8 77.8)"><tspan x="0" y="0">Plan &amp;</tspan></text>
    </g>
    <g class="cls-11">
      <text class="cls-12" transform="translate(162.8 89.8)"><tspan x="0" y="0">design</tspan></text>
    </g>
  </g>
  <use width="20.9" height="25.8" transform="translate(108.2 212.5) scale(.9 .8)" xlink:href="#Lock"/>
  <g class="cls-11">
    <g class="cls-11">
      <text class="cls-12" transform="translate(196.9 144.5)"><tspan x="0" y="0">Discover &amp;</tspan></text>
    </g>
    <g class="cls-11">
      <text class="cls-12" transform="translate(196.9 156.5)"><tspan x="0" y="0">generate</tspan></text>
    </g>
    <g class="cls-10">
      <use width="8.8" height="6.1" transform="translate(113.1 230.5) scale(1.1 -1.2)" xlink:href="#Badge_3_-_Green"/>
    </g>
  </g>
</svg>